<?xml version="1.0" encoding="utf-8"?>
<!-- Generator: Adobe Illustrator 25.0.1, SVG Export Plug-In . SVG Version: 6.00 Build 0)  -->
<svg version="1.1" id="Camada_1" xmlns="http://www.w3.org/2000/svg" xmlns:xlink="http://www.w3.org/1999/xlink" x="0px" y="0px"
	 viewBox="0 0 500 500" style="enable-background:new 0 0 500 500;" xml:space="preserve">
<style type="text/css">
	.st0{fill:#123A5F;}
	.st1{fill:#145593;}
	.st2{fill:#D2D528;}
	.st3{fill:#0B5690;}
	.st4{fill:#0B5690;stroke:#0B5690;stroke-miterlimit:10;}
</style>
<rect x="-1" class="st0" width="501" height="501"/>
<path class="st1" d="M119.7,376.9c44.3,45.3,110.8,68.9,181.8,53.4c74.9-16.3,132.5-76.5,146.5-151.8c6.5-35.4,3.4-69.6-7.2-100.2
	l59.2,78.5V500H216"/>
<path class="st2" d="M452.8,245.1c0,106.8-86.6,193.5-193.5,193.5c-56.4,0-107.2-24.1-142.5-62.7c-31.6-34.4-50.9-80.4-50.9-130.8
	c0-106.8,86.6-193.5,193.5-193.5c70.9,0,132.9,38.1,166.6,95C443,175.5,452.8,209.2,452.8,245.1z"/>
<path class="st3" d="M217,185.4"/>
<path class="st3" d="M111.9,215.3c-1.4,8.6-2.1,17.3-2.5,26.2c-0.1,1.4-0.2,2.7-0.5,4.1c-0.7,2.9-3.2,5-6.1,5.2
	c-3,0.2-6-1.3-6.8-4.2c-0.7-2.7-1-5.5-0.9-8.3c2-53.5,23.9-97,66.7-129.1c33.2-24.9,71-35.3,112.3-31.6
	c36.4,3.2,68.3,17.3,95.6,41.7c1.2,1.1,2.4,2.4,3.3,3.8c2.2,3.1,1.5,7.3-1.6,9.5c-2,1.4-4.7,1.7-6.9,0.6c-1.2-0.6-2.3-1.3-3.2-2.2
	c-22.2-20.3-48.1-33.1-77.7-37.8c-41.2-6.5-78.9,2.6-112.8,27.1c-24.8,18-42.3,41.6-52.6,70.4C115.3,198.8,113.3,206.9,111.9,215.3z
	"/>
<path class="st3" d="M221.3,177.4"/>
<path class="st3" d="M181.4,309.4v5.8c0,0-1.2,5.3,6.9,5.3h60.5c0,0,6-0.2,6.9,4.3c0.9,4.4-1.2,8-5.8,8.3c-4.6,0.3-66.6,0-66.6,0
	s-16-2.4-15.2-19.4c0.8-17.1-0.2-94.6-0.2-94.6v-34.6c0,0,1.7-15.3,19.2-15.9h13.2h128.3h5.2c0,0,12.8,0.2,17.6,15.6v48.3
	c-0.2,0,0,5.7-7,5.6c0,0-0.1,0-0.1,0c-0.1,0-0.2,0-0.3,0c-0.1,0-0.3,0-0.4,0c-0.2,0-0.3,0-0.5-0.1c-0.2,0-0.4-0.1-0.6-0.2
	c-0.2-0.1-0.4-0.2-0.7-0.3c-0.2-0.1-0.5-0.2-0.7-0.4c-0.2-0.2-0.5-0.3-0.7-0.5c-0.2-0.2-0.5-0.5-0.6-0.7c-0.2-0.3-0.4-0.6-0.6-0.9
	c-0.2-0.4-0.4-0.8-0.5-1.1c-0.1-0.2-0.1-0.4-0.2-0.7c-0.1-0.5-0.2-1,0.4-1.6v-0.6v-0.7v-0.8v-0.9v-0.9v-1v-1v-1v-1v-0.9v-0.9V221
	v-0.7v-0.5v-0.4v-0.2v-0.1v-33.5c-0.2,0-6.3-6.1-6.3-6.1H188.2c0,0-7.1-1.1-6.8,7.3V309.4z"/>
<circle class="st3" cx="301" cy="282" r="49"/>
<path class="st3" d="M321,169h-14v-7.7c0-3.5,2.8-6.3,6.3-6.3h1.5c3.5,0,6.3,2.8,6.3,6.3V169z"/>
<path class="st3" d="M270,168.8h-14v-8c0-3.5,2.8-6.3,6.3-6.3h1.5c3.5,0,6.3,2.8,6.3,6.3V168.8z"/>
<path class="st2" d="M287.1,276.2l10.2,9.4l14.9-20.6c0,0,4.3-4.1,9.3,0.6c0,0,2.9,3.3,0.5,7.4s-20.9,27-20.9,27s-4.2,3-8.3-1.2
	c-4.1-4.2-14.1-14.4-14.1-14.4s-1.5-4.6,1.9-7.3C280.7,277.3,283.4,274.6,287.1,276.2z"/>
<path class="st3" d="M423.6,249.1c-1.8,58.3-26.1,104.7-74.7,137.4c-30.8,20.7-65.2,29.1-102.3,26.4c-34.8-2.5-65.6-15.1-92.5-37.1
	c-1.8-1.4-3.3-3-4.5-4.8c-2-3.4-1.2-7.8,2-10.2c3-2.4,7.4-2.3,10.2,0.3c19.1,17.6,41.8,28.4,67.1,33.3c44.6,8.7,85.4-0.6,121.3-28.4
	c31.4-24.3,49.9-56.6,55.9-95.9c3.2-21.1,1.7-42.6-4.4-63c-1.2-3.6,0.5-7.6,4-9.1c3.4-1.7,7.6-0.7,9.9,2.4c0.9,1.2,1.5,2.5,1.9,3.9
	C421.6,218.9,423.6,234,423.6,249.1z"/>
<rect x="201.5" y="192.5" class="st4" width="24" height="24"/>
<rect x="201.5" y="236.5" class="st4" width="24" height="24"/>
<rect x="201.5" y="280.5" class="st4" width="24" height="24"/>
<path class="st3" d="M220.5,168.8h-14V161c0-3.5,2.8-6.3,6.3-6.3h1.5c3.5,0,6.3,2.8,6.3,6.3V168.8z"/>
</svg>
